<?xml version="1.0" encoding="UTF-8"?>
<svg version="1.1" xmlns="http://www.w3.org/2000/svg" width="464" height="461">
<path d="M0 0 C0 24.75 0 49.5 0 75 C2.97 75.99 5.94 76.98 9 78 C11.0512762 79.00246673 13.07864623 80.05745671 15.0625 81.1875 C16.00222656 81.71730469 16.94195312 82.24710937 17.91015625 82.79296875 C18.59980469 83.19128906 19.28945312 83.58960938 20 84 C20 85.98 20 87.96 20 90 C-29.17 90 -78.34 90 -129 90 C-129 88.02 -129 86.04 -129 84 C-128.42967041 83.73783691 -127.85934082 83.47567383 -127.27172852 83.20556641 C-124.69893595 82.01852753 -122.1307146 80.82190916 -119.5625 79.625 C-118.66466797 79.2125 -117.76683594 78.8 -116.84179688 78.375 C-115.56079102 77.77558594 -115.56079102 77.77558594 -114.25390625 77.1640625 C-113.46314697 76.79748535 -112.6723877 76.4309082 -111.85766602 76.05322266 C-109.83497069 75.13452903 -109.83497069 75.13452903 -109 73 C-108.91320201 70.79972921 -108.89296913 68.59673759 -108.90234375 66.39477539 C-108.90453415 65.37744072 -108.90453415 65.37744072 -108.9067688 64.33955383 C-108.91057758 62.8652022 -108.91669707 61.39085516 -108.92483521 59.91652107 C-108.93757358 57.58418489 -108.94410805 55.25190543 -108.94897461 52.91954041 C-108.96236306 47.12591637 -108.98655653 41.33234614 -109.01037598 35.53875732 C-109.03008748 30.64567305 -109.04573728 25.75260878 -109.05593872 20.85949516 C-109.0624298 18.56002602 -109.07493896 16.26063888 -109.08764648 13.9611969 C-109.09127894 12.55233838 -109.09463068 11.1434791 -109.09765625 9.73461914 C-109.10289307 8.5037709 -109.10812988 7.27292267 -109.11352539 6.004776 C-109 3 -109 3 -108 0 C-94.36157354 -0.15369118 -80.72309953 -0.30187297 -67.08453655 -0.4429636 C-60.75204369 -0.50864747 -54.41958329 -0.5762502 -48.0871582 -0.64819336 C-41.97939426 -0.71751428 -35.87159653 -0.78185337 -29.76374245 -0.84269524 C-27.43006284 -0.86682554 -25.09640128 -0.8927703 -22.76276207 -0.92053413 C-19.50161946 -0.9590269 -16.24047307 -0.99114732 -12.97924805 -1.02172852 C-12.00820633 -1.03467453 -11.03716461 -1.04762054 -10.03669739 -1.06095886 C-9.14908722 -1.06799835 -8.26147705 -1.07503784 -7.3469696 -1.08229065 C-6.18965851 -1.09473485 -6.18965851 -1.09473485 -5.0089674 -1.10743046 C-3 -1 -3 -1 0 0 Z " fill="#5AD5FC" transform="translate(181,187)"/>
<path d="M0 0 C0 24.75 0 49.5 0 75 C2.97 75.99 5.94 76.98 9 78 C11.0512762 79.00246673 13.07864623 80.05745671 15.0625 81.1875 C16.00222656 81.71730469 16.94195312 82.24710937 17.91015625 82.79296875 C18.59980469 83.19128906 19.28945312 83.58960938 20 84 C20 85.98 20 87.96 20 90 C-29.17 90 -78.34 90 -129 90 C-129 88.02 -129 86.04 -129 84 C-128.42967041 83.73783691 -127.85934082 83.47567383 -127.27172852 83.20556641 C-124.69893595 82.01852753 -122.1307146 80.82190916 -119.5625 79.625 C-118.66466797 79.2125 -117.76683594 78.8 -116.84179688 78.375 C-115.56079102 77.77558594 -115.56079102 77.77558594 -114.25390625 77.1640625 C-113.46314697 76.79748535 -112.6723877 76.4309082 -111.85766602 76.05322266 C-109.83497069 75.13452903 -109.83497069 75.13452903 -109 73 C-108.91320201 70.79972921 -108.89296913 68.59673759 -108.90234375 66.39477539 C-108.90453415 65.37744072 -108.90453415 65.37744072 -108.9067688 64.33955383 C-108.91057758 62.8652022 -108.91669707 61.39085516 -108.92483521 59.91652107 C-108.93757358 57.58418489 -108.94410805 55.25190543 -108.94897461 52.91954041 C-108.96236306 47.12591637 -108.98655653 41.33234614 -109.01037598 35.53875732 C-109.03008748 30.64567305 -109.04573728 25.75260878 -109.05593872 20.85949516 C-109.0624298 18.56002602 -109.07493896 16.26063888 -109.08764648 13.9611969 C-109.09127894 12.55233838 -109.09463068 11.1434791 -109.09765625 9.73461914 C-109.10289307 8.5037709 -109.10812988 7.27292267 -109.11352539 6.004776 C-109 3 -109 3 -108 0 C-94.36157354 -0.15369118 -80.72309953 -0.30187297 -67.08453655 -0.4429636 C-60.75204369 -0.50864747 -54.41958329 -0.5762502 -48.0871582 -0.64819336 C-41.97939426 -0.71751428 -35.87159653 -0.78185337 -29.76374245 -0.84269524 C-27.43006284 -0.86682554 -25.09640128 -0.8927703 -22.76276207 -0.92053413 C-19.50161946 -0.9590269 -16.24047307 -0.99114732 -12.97924805 -1.02172852 C-12.00820633 -1.03467453 -11.03716461 -1.04762054 -10.03669739 -1.06095886 C-9.14908722 -1.06799835 -8.26147705 -1.07503784 -7.3469696 -1.08229065 C-6.18965851 -1.09473485 -6.18965851 -1.09473485 -5.0089674 -1.10743046 C-3 -1 -3 -1 0 0 Z M-103 5 C-103 26.78 -103 48.56 -103 71 C-70.66 71 -38.32 71 -5 71 C-5 49.22 -5 27.44 -5 5 C-37.34 5 -69.68 5 -103 5 Z " fill="#0191CB" transform="translate(181,187)"/>
<path d="M0 0 C0 24.75 0 49.5 0 75 C2.97 75.99 5.94 76.98 9 78 C11.0512762 79.00246673 13.07864623 80.05745671 15.0625 81.1875 C16.00222656 81.71730469 16.94195312 82.24710937 17.91015625 82.79296875 C18.59980469 83.19128906 19.28945312 83.58960938 20 84 C20 85.98 20 87.96 20 90 C-29.17 90 -78.34 90 -129 90 C-129 88.02 -129 86.04 -129 84 C-123.25 81 -123.25 81 -121 81 C-121 81.99 -121 82.98 -121 84 C-78.1 84 -35.2 84 9 84 C9 83.01 9 82.02 9 81 C7.35 80.67 5.7 80.34 4 80 C3.67 79.01 3.34 78.02 3 77 C1.68 76.67 0.36 76.34 -1 76 C-1.99 71.545 -1.99 71.545 -3 67 C-3.33 67 -3.66 67 -4 67 C-4.02314315 58.68998125 -4.04092518 50.37997592 -4.05181217 42.06993294 C-4.05703667 38.2114867 -4.06412649 34.35306247 -4.07543945 30.49462891 C-4.08628368 26.7728847 -4.09228011 23.0511617 -4.09487724 19.32940292 C-4.09672871 17.90759828 -4.10034403 16.48579483 -4.10573006 15.06399918 C-4.11296072 13.0766945 -4.11340823 11.08936861 -4.11352539 9.10205078 C-4.115746 7.96953888 -4.11796661 6.83702698 -4.12025452 5.67019653 C-4 3 -4 3 -3 1 C-37.32 1 -71.64 1 -107 1 C-106.88122722 25.21848369 -106.88122722 25.21848369 -106.72973633 49.43676758 C-106.71618652 54.1204834 -106.71618652 54.1204834 -106.71366882 56.31303406 C-106.70906159 57.84459547 -106.69850927 59.37614599 -106.68327332 60.90763855 C-106.66134834 63.22743641 -106.65828072 65.5465693 -106.65942383 67.86645508 C-106.65276199 69.17439529 -106.64610016 70.48233551 -106.63923645 71.82991028 C-107 75 -107 75 -108.52128601 76.94584656 C-109.25324944 77.46765251 -109.25324944 77.46765251 -110 78 C-110.66 77.34 -111.32 76.68 -112 76 C-111.51169708 75.64357422 -111.02339417 75.28714844 -110.52029419 74.91992188 C-108.27320625 72.08215973 -108.64703373 69.86643846 -108.67529297 66.28125 C-108.67646118 65.60288086 -108.67762939 64.92451172 -108.67883301 64.22558594 C-108.68602027 61.98341318 -108.7142328 59.74200175 -108.7421875 57.5 C-108.75032394 55.9420642 -108.75698711 54.38412007 -108.76223755 52.82617188 C-108.7793628 48.72379736 -108.81361729 44.62175261 -108.85229492 40.51953125 C-108.91146717 33.95332072 -108.94535194 27.38694281 -108.97806168 20.82055664 C-108.99203243 18.52547379 -109.0136249 16.23055784 -109.03634644 13.93554688 C-109.04636997 12.52994909 -109.05623569 11.12435017 -109.06591797 9.71875 C-109.07718719 8.49091797 -109.08845642 7.26308594 -109.10006714 5.99804688 C-109 3 -109 3 -108 0 C-94.36157354 -0.15369118 -80.72309953 -0.30187297 -67.08453655 -0.4429636 C-60.75204369 -0.50864747 -54.41958329 -0.5762502 -48.0871582 -0.64819336 C-41.97939426 -0.71751428 -35.87159653 -0.78185337 -29.76374245 -0.84269524 C-27.43006284 -0.86682554 -25.09640128 -0.8927703 -22.76276207 -0.92053413 C-19.50161946 -0.9590269 -16.24047307 -0.99114732 -12.97924805 -1.02172852 C-12.00820633 -1.03467453 -11.03716461 -1.04762054 -10.03669739 -1.06095886 C-9.14908722 -1.06799835 -8.26147705 -1.07503784 -7.3469696 -1.08229065 C-6.18965851 -1.09473485 -6.18965851 -1.09473485 -5.0089674 -1.10743046 C-3 -1 -3 -1 0 0 Z " fill="#0E82B7" transform="translate(181,187)"/>
<path d="M0 0 C16.5 0 33 0 50 0 C51 5 51 5 49 9 C49.39397335 11.63804589 49.39397335 11.63804589 50 14 C49 15 49 15 45.76538086 15.11352539 C44.33185874 15.11336631 42.89833088 15.10767407 41.46484375 15.09765625 C40.33496788 15.09553383 40.33496788 15.09553383 39.18226624 15.09336853 C36.7673044 15.08775376 34.35243399 15.07519883 31.9375 15.0625 C30.30403779 15.0574869 28.67057414 15.05292366 27.03710938 15.04882812 C23.02470415 15.03777954 19.01236759 15.02050506 15 15 C15.04640625 16.04800781 15.0928125 17.09601563 15.140625 18.17578125 C15.17814548 19.55465901 15.21454536 20.93356758 15.25 22.3125 C15.30027344 23.34793945 15.30027344 23.34793945 15.3515625 24.40429688 C15.45057158 29.52801696 15.45057158 29.52801696 13.109375 31.98046875 C11 33 11 33 9 33 C9 33.99 9 34.98 9 36 C5.51545517 34.45131341 2.72100927 32.68732032 0 30 C-0.56762695 26.79199219 -0.56762695 26.79199219 -0.48828125 23.046875 C-0.47579346 21.83870117 -0.46330566 20.63052734 -0.45043945 19.38574219 C-0.40491943 17.85594727 -0.35939941 16.32615234 -0.3125 14.75 C-0.209375 9.8825 -0.10625 5.015 0 0 Z " fill="#5AD5FC" transform="translate(100,208)"/>
<path d="M0 0 C34.32 0 68.64 0 104 0 C103.855625 11.529375 103.71125 23.05875 103.5625 34.9375 C103.51939697 38.58288818 103.47629395 42.22827637 103.43188477 45.98413086 C103.3729248 50.42297363 103.3729248 50.42297363 103.34410095 52.49855042 C103.32483348 53.95348361 103.30752258 55.40844349 103.29173279 56.86341858 C103.26749163 59.06259738 103.2371142 61.26161255 103.20532227 63.46069336 C103.18977798 64.70201523 103.1742337 65.9433371 103.15821838 67.22227478 C103 70 103 70 102 71 C98.92545239 71.09532328 95.87340842 71.1255138 92.79858398 71.11352539 C91.34995972 71.11374443 91.34995972 71.11374443 89.87207031 71.1139679 C86.66338901 71.11326834 83.45476497 71.10547397 80.24609375 71.09765625 C78.02791882 71.09579222 75.80974348 71.09436825 73.59156799 71.09336853 C67.74059929 71.08954216 61.88965523 71.07971086 56.03869629 71.06866455 C50.07332696 71.05845299 44.10795367 71.05387146 38.14257812 71.04882812 C26.42837456 71.03808869 14.71418933 71.02101085 3 71 C2.67 70.34 2.34 69.68 2 69 C1.01 69.99 1.01 69.99 0 71 C0 47.57 0 24.14 0 0 Z M4 4 C4 25.78 4 47.56 4 70 C36.34 70 68.68 70 102 70 C102 48.22 102 26.44 102 4 C69.66 4 37.32 4 4 4 Z " fill="#119DD2" transform="translate(74,188)"/>
<path d="M0 0 C1.39025391 0.02707031 1.39025391 0.02707031 2.80859375 0.0546875 C5.08181435 0.10155803 7.35285407 0.16714475 9.625 0.25 C9.71238991 4.62487331 9.765524 8.99952078 9.8125 13.375 C9.83763672 14.6125 9.86277344 15.85 9.88867188 17.125 C9.89833984 18.32382813 9.90800781 19.52265625 9.91796875 20.7578125 C9.9336792 21.85754395 9.94938965 22.95727539 9.96557617 24.09033203 C9.46326237 28.7505078 8.00013649 32.13152426 4.34375 35.10546875 C1.08765441 36.47621014 -1.34944856 36.61604225 -4.875 36.5625 C-5.9784375 36.55863281 -7.081875 36.55476563 -8.21875 36.55078125 C-11.35616712 36.25179472 -13.57839211 35.68093941 -16.375 34.25 C-17.6875 32.125 -17.6875 32.125 -18.375 30.25 C-17.385 28.93 -16.395 27.61 -15.375 26.25 C-14.88 26.394375 -14.385 26.53875 -13.875 26.6875 C-7.10526884 28.23896822 -7.10526884 28.23896822 -0.375 27.25 C-0.375 26.59 -0.375 25.93 -0.375 25.25 C-1.03886719 25.27320313 -1.70273437 25.29640625 -2.38671875 25.3203125 C-12.02338889 25.51726634 -12.02338889 25.51726634 -15.375 23.25 C-18.82615866 18.49299752 -20.15325615 15.25369028 -19.375 9.25 C-15.66519917 0.38769802 -8.52213775 -0.316085 0 0 Z M-9.25 8.4375 C-10.81409226 10.95742641 -10.95643341 12.34283294 -10.375 15.25 C-8.32207246 17.3655391 -8.32207246 17.3655391 -5.375 18.25 C-1.53320417 17.43712004 -1.53320417 17.43712004 1.625 15.25 C1.91678308 12.47806071 1.98866316 10.83590175 0.5 8.4375 C-2.74927999 6.37962267 -6.00072001 6.37962267 -9.25 8.4375 Z " fill="#CFD2D9" transform="translate(270.375,222.75)"/>
<path d="M0 0 C2.97 0 5.94 0 9 0 C9.02465098 4.96622349 9.04283649 9.93241166 9.05493164 14.89868164 C9.0599719 16.58944316 9.06680405 18.28020029 9.07543945 19.97094727 C9.08751857 22.39600707 9.09323123 24.82100944 9.09765625 27.24609375 C9.10281754 28.00651474 9.10797882 28.76693573 9.11329651 29.55039978 C9.11349238 31.3673257 9.06197277 33.18413127 9 35 C6.64232343 37.35767657 0.91251856 36.28100081 -2.25 36.3125 C-3.68279297 36.35600586 -3.68279297 36.35600586 -5.14453125 36.40039062 C-12.23769396 36.46451518 -12.23769396 36.46451518 -16.08984375 34.1171875 C-19.98241048 29.80272703 -20.35303422 25.76998061 -20.17578125 20.14453125 C-19.9393946 17.26061418 -19.60490035 15.44223967 -18 13 C-12.7791901 9.05775579 -8.48029661 8.19491223 -2 9 C-1.34 9.33 -0.68 9.66 0 10 C0 6.7 0 3.4 0 0 Z M-12 20 C-12.55156953 23.76905843 -12.16551116 24.75173326 -10 28 C-7.28275664 28.92958326 -5.55624887 29.12361086 -2.75 28.5 C-0.65956215 26.99020236 -0.65956215 26.99020236 -0.0625 23.625 C0.26093181 20.1012749 0.26093181 20.1012749 -1.125 17.5625 C-2.92010169 15.81625063 -2.92010169 15.81625063 -5.4375 15.5 C-8.81944377 16.15989147 -9.98109317 17.2333499 -12 20 Z " fill="#E3E6EB" transform="translate(366,214)"/>
<path d="M0 0 C3.98782145 -0.58004676 6.08673477 -0.63226055 9.4375 1.6875 C11 4 11 4 11.5 6.5 C10.81895125 9.90524375 9.8520847 11.02547983 7 13 C3.25 13.25 3.25 13.25 0 13 C-0.66 11.68 -1.32 10.36 -2 9 C-18.5 9 -35 9 -52 9 C-51.9175 13.888125 -51.835 18.77625 -51.75 23.8125 C-51.73420898 25.35139893 -51.71841797 26.89029785 -51.70214844 28.47583008 C-51.6715332 29.68650146 -51.64091797 30.89717285 -51.609375 32.14453125 C-51.58842773 33.38565674 -51.56748047 34.62678223 -51.54589844 35.90551758 C-51.31821516 39.09285472 -51.31821516 39.09285472 -48.99316406 40.74487305 C-48.33541992 41.15906494 -47.67767578 41.57325684 -47 42 C-46.38540452 45.61074844 -46.54038711 47.30138841 -48.5625 50.375 C-51.94311262 52.62874175 -54.0247739 52.65049154 -58 52 C-60.63970975 49.19530839 -61.01280858 47.65323765 -60.9375 43.8125 C-60.628125 42.884375 -60.31875 41.95625 -60 41 C-58.68 40.34 -57.36 39.68 -56 39 C-56 27.78 -56 16.56 -56 5 C-52.20886719 4.97421875 -48.41773437 4.9484375 -44.51171875 4.921875 C-40.84798694 4.88348452 -37.1843973 4.83831443 -33.52075195 4.79248047 C-30.97069055 4.76422044 -28.42054074 4.74303112 -25.87036133 4.72900391 C-22.20868494 4.70764472 -18.54807736 4.66102828 -14.88671875 4.609375 C-13.17097908 4.60753204 -13.17097908 4.60753204 -11.420578 4.60565186 C-10.35970474 4.58593323 -9.29883148 4.5662146 -8.20581055 4.54589844 C-6.80349434 4.53257477 -6.80349434 4.53257477 -5.37284851 4.51898193 C-2.28075628 3.84268928 -1.75992631 2.52958122 0 0 Z " fill="#EAFDFE" transform="translate(152,199)"/>
<path d="M0 0 C0 0.66 0 1.32 0 2 C0.66 2 1.32 2 2 2 C1.25 6.75 1.25 6.75 -1 9 C-3.66821189 8.71913559 -5.61185709 8.2253733 -7.9375 6.875 C-10.97511829 5.58631345 -12.87269864 6.08787044 -16 7 C-19.20417475 9.25158226 -19.90213788 10.61554167 -20.875 14.4375 C-21.00103946 18.02962458 -20.88151358 19.95373992 -19 23 C-15.63566386 24.61986555 -11.65840493 24.19954936 -8 24 C-7.01 23.34 -6.02 22.68 -5 22 C-1.67759676 22.3241369 -0.39223697 22.60776303 2 25 C1.7603518 27.47636473 1.19869504 28.75614699 -0.375 30.6875 C-5.2720613 34.64281874 -13.10333575 33.50658628 -19 33 C-21.77642724 31.98470338 -22.87714268 31.12285732 -25 29 C-25 28.34 -25 27.68 -25 27 C-25.99 26.67 -26.98 26.34 -28 26 C-30.70386746 20.85451309 -30.51818227 15.6665739 -30 10 C-28.27407479 4.61917434 -24.65704887 1.07465377 -20 -2 C-12.94664868 -4.35581934 -6.47622971 -3.30701092 0 0 Z " fill="#B6C0CC" transform="translate(314,217)"/>
<path d="M0 0 C0.33 0.99 0.66 1.98 1 3 C48.85 3 96.7 3 146 3 C146.33 2.34 146.66 1.68 147 1 C147 2.98 147 4.96 147 7 C97.83 7 48.66 7 -2 7 C-2 5.02 -2 3.04 -2 1 C-1.34 0.67 -0.68 0.34 0 0 Z " fill="#024387" transform="translate(54,270)"/>
<path d="M0 0 C2.64 0 5.28 0 8 0 C8.23074219 0.52207031 8.46148437 1.04414063 8.69921875 1.58203125 C9.39202747 3.14564303 10.08757547 4.70804261 10.78515625 6.26953125 C11.63504366 8.17972835 12.47541893 10.09417311 13.30859375 12.01171875 C13.74300781 12.99785156 14.17742187 13.98398438 14.625 15 C15.02976563 15.928125 15.43453125 16.85625 15.8515625 17.8125 C16.80493201 20.14581764 16.80493201 20.14581764 19 21 C19.17015625 20.47792969 19.3403125 19.95585937 19.515625 19.41796875 C25.37336815 1.62663185 25.37336815 1.62663185 27 0 C29.67058851 -0.14115161 32.32432238 -0.04247107 35 0 C34.68446756 7.9770545 31.40770188 14.3198001 28 21.4375 C27.43391641 22.64472351 26.86880396 23.8524029 26.3046875 25.06054688 C22.18268327 33.81731673 22.18268327 33.81731673 21 35 C17.625 35.3125 17.625 35.3125 14 35 C10.96054268 31.8916381 9.71511521 28.07301597 8.1875 24.0625 C5.75513425 17.74099208 3.01659603 11.68005816 0.00390625 5.609375 C-1 3 -1 3 0 0 Z " fill="#B7BEC9" transform="translate(191,215)"/>
<path d="M0 0 C4.41884299 2.16925019 7.05081082 4.45189192 9 9 C9.1875 12.3125 9.1875 12.3125 9 15 C7.35 15.33 5.7 15.66 4 16 C4.495 16.5775 4.99 17.155 5.5 17.75 C7 20 7 20 7 24 C4.72349571 26.46018312 3.27545912 26.96411644 -0.05859375 27.3984375 C-1.17363281 27.39070313 -2.28867187 27.38296875 -3.4375 27.375 C-4.54996094 27.38273437 -5.66242188 27.39046875 -6.80859375 27.3984375 C-11.63509125 26.79586376 -14.13934376 24.97696113 -17.3125 21.375 C-19.46969217 17.06061565 -19.84026553 13.73604208 -19 9 C-14.81227876 0.62455752 -8.9059978 -1.28451891 0 0 Z M-7 7 C-7.99 8.485 -7.99 8.485 -9 10 C-6.03 10 -3.06 10 0 10 C-0.66 9.01 -1.32 8.02 -2 7 C-4.5 6.5 -4.5 6.5 -7 7 Z M-9 16 C-8.67 16.99 -8.34 17.98 -8 19 C-4.69903842 19.8252404 -2.1967 20.37001429 1 19 C1.33 18.01 1.66 17.02 2 16 C-1.63 16 -5.26 16 -9 16 Z " fill="#D5E3E9" transform="translate(396,223)"/>
<path d="M0 0 C3.89024338 2.03184686 6.32487004 4.19056436 7.90234375 8.2734375 C8.63097363 14.72701648 7.47526902 17.91404959 3.90234375 23.2734375 C3.24234375 23.2734375 2.58234375 23.2734375 1.90234375 23.2734375 C1.90234375 23.9334375 1.90234375 24.5934375 1.90234375 25.2734375 C-1.25775158 26.32680261 -3.65296985 26.47376638 -6.97265625 26.5234375 C-8.51566406 26.56210938 -8.51566406 26.56210938 -10.08984375 26.6015625 C-14.4089006 26.13039266 -17.02180714 24.46058134 -19.91015625 21.2734375 C-21.74593831 16.63567228 -21.76418761 12.19095777 -21.09765625 7.2734375 C-16.63989959 -0.65146322 -8.45186439 -2.92746141 0 0 Z M-10.91015625 7.3359375 C-12.72755236 10.30116274 -12.344576 12.87829095 -12.09765625 16.2734375 C-11.26987538 18.50346871 -11.26987538 18.50346871 -8.84765625 19.0859375 C-6.03416154 19.46118184 -6.03416154 19.46118184 -3.28515625 18.2734375 C-0.7326302 16.3648571 -0.7326302 16.3648571 -0.59765625 12.7734375 C-0.84329594 9.40090127 -0.84329594 9.40090127 -2.28515625 7.3359375 C-5.34469201 5.54241654 -7.85062049 5.54241654 -10.91015625 7.3359375 Z " fill="#E2E5E9" transform="translate(337.09765625,223.7265625)"/>
<path d="M0 0 C2.79945674 1.20675611 4.83428616 2.83428616 7 5 C7.09899523 6.54955559 7.13079524 8.10353673 7.1328125 9.65625 C7.13474609 11.06583984 7.13474609 11.06583984 7.13671875 12.50390625 C7.13285156 13.49261719 7.12898438 14.48132813 7.125 15.5 C7.13080078 16.98306641 7.13080078 16.98306641 7.13671875 18.49609375 C7.13542969 19.43582031 7.13414062 20.37554687 7.1328125 21.34375 C7.13168457 22.21193359 7.13055664 23.08011719 7.12939453 23.97460938 C7 26 7 26 6 27 C2.90620491 27.3325756 -0.2031241 27.32488552 -3.3125 27.375 C-4.61477539 27.43107422 -4.61477539 27.43107422 -5.94335938 27.48828125 C-12.35363195 27.57683452 -12.35363195 27.57683452 -15.578125 24.69921875 C-17.42726994 21.1888914 -17.49853738 18.91707941 -17 15 C-15.23984869 11.8149643 -14.50109084 11.16703028 -11 10 C-9.43881572 9.93259135 -7.8749748 9.91485544 -6.3125 9.9375 C-5.10013672 9.95103516 -5.10013672 9.95103516 -3.86328125 9.96484375 C-2.94095703 9.98224609 -2.94095703 9.98224609 -2 10 C-2.33 9.34 -2.66 8.68 -3 8 C-7.16138263 7.91840426 -10.9472484 8.01751476 -15 9 C-15.33 7.02 -15.66 5.04 -16 3 C-11.24145331 -0.93810761 -5.86966183 -0.80783047 0 0 Z M-8 16 C-8 17.32 -8 18.64 -8 20 C-6.35 20 -4.7 20 -3 20 C-2.34 18.68 -1.68 17.36 -1 16 C-3.31 16 -5.62 16 -8 16 Z " fill="#C4C9D2" transform="translate(241,223)"/>
<path d="M0 0 C3.51635308 0.68611767 5.14154909 1.87153902 7.5625 4.5 C8.15859882 8.58753479 7.47274186 10.94035251 5.5625 14.5 C4.10457116 14.55399736 2.64607288 14.59279177 1.1875 14.625 C0.37539062 14.64820313 -0.43671875 14.67140625 -1.2734375 14.6953125 C-3.4375 14.5 -3.4375 14.5 -5.4375 12.5 C-5.4375 11.51 -5.4375 10.52 -5.4375 9.5 C-15.6675 9.5 -25.8975 9.5 -36.4375 9.5 C-36.4375 13.13 -36.4375 16.76 -36.4375 20.5 C-35.1175 21.16 -33.7975 21.82 -32.4375 22.5 C-31.4375 23.5 -31.4375 23.5 -31.125 26.3125 C-31.4375 29.5 -31.4375 29.5 -33.0625 31.875 C-36.14936432 33.98706506 -37.7657913 34.11195145 -41.4375 33.5 C-43.8125 31.875 -43.8125 31.875 -45.4375 29.5 C-45.91344174 26.16840785 -46.08135081 24.37797838 -44.0625 21.625 C-42.4375 20.5 -42.4375 20.5 -40.4375 20.5 C-40.4375 15.55 -40.4375 10.6 -40.4375 5.5 C-36.82554688 5.46132812 -36.82554688 5.46132812 -33.140625 5.421875 C-30.80391844 5.38344233 -28.46743165 5.33828635 -26.13085938 5.29248047 C-24.50922163 5.26428653 -22.88744687 5.24306406 -21.265625 5.22900391 C-18.93157895 5.20755128 -16.59917739 5.16089425 -14.265625 5.109375 C-13.54256165 5.10814636 -12.81949829 5.10691772 -12.07452393 5.10565186 C-8.57288194 5.00417151 -6.80071881 4.81191586 -4.10058594 2.49316406 C-2.4375 0.5 -2.4375 0.5 0 0 Z " fill="#CEF5FB" transform="translate(155.4375,217.5)"/>
<path d="M0 0 C6.27906977 0.34883721 6.27906977 0.34883721 8.9375 2.75 C10.23370853 5.49491218 10.52487013 7.00074212 10 10 C8.375 12.3125 8.375 12.3125 6 14 C3 14.5 3 14.5 0 14 C-1.33333333 12.66666667 -2.66666667 11.33333333 -4 10 C-7 9.33333333 -7 9.33333333 -10 10 C-10.66 10.66 -11.32 11.32 -12 12 C-14 14 -14 14 -17.0625 14.4375 C-20 14 -20 14 -21.69921875 12.76171875 C-23.43419984 10.41193955 -23.1765979 9.22207727 -22.75 6.375 C-22.58757812 5.18003906 -22.58757812 5.18003906 -22.421875 3.9609375 C-22 2 -22 2 -21 1 C-18.32941149 0.85884839 -15.67567762 0.95752893 -13 1 C-12.34 2.32 -11.68 3.64 -11 5 C-8.36 5 -5.72 5 -3 5 C-2.690625 4.360625 -2.38125 3.72125 -2.0625 3.0625 C-1 1 -1 1 0 0 Z " fill="#DEFAFD" transform="translate(153,237)"/>
<path d="M0 0 C1.35568336 0.00333092 1.35568336 0.00333092 2.73875427 0.00672913 C3.75973709 0.00680466 4.78071991 0.00688019 5.8326416 0.00695801 C6.94304306 0.01211929 8.05344452 0.01728058 9.19749451 0.02259827 C10.89336952 0.02472069 10.89336952 0.02472069 12.62350464 0.02688599 C16.25105891 0.03250433 19.8785525 0.04505994 23.50608826 0.05775452 C25.95856133 0.06276715 28.41103536 0.06733047 30.86351013 0.07142639 C36.89022371 0.08247971 42.91690165 0.09923568 48.94358826 0.12025452 C48.94358826 0.45025452 48.94358826 0.78025452 48.94358826 1.12025452 C32.77358826 1.12025452 16.60358826 1.12025452 -0.05641174 1.12025452 C0.02608826 6.00837952 0.10858826 10.89650452 0.19358826 15.93275452 C0.20937927 17.47165344 0.22517029 19.01055237 0.24143982 20.59608459 C0.27205505 21.80675598 0.30267029 23.01742737 0.33421326 24.26478577 C0.35516052 25.50591125 0.37610779 26.74703674 0.39768982 28.02577209 C0.6253731 31.21310923 0.6253731 31.21310923 2.95042419 32.86512756 C3.60816833 33.27931946 4.26591248 33.69351135 4.94358826 34.12025452 C5.55818374 37.73100296 5.40320115 39.42164292 3.38108826 42.49525452 C0.00047563 44.74899627 -2.08118565 44.77074606 -6.05641174 44.12025452 C-8.05641174 41.99525452 -8.05641174 41.99525452 -9.05641174 39.12025452 C-8.83874807 35.41997215 -8.70150133 33.76534411 -6.05641174 31.12025452 C-5.06641174 31.12025452 -4.07641174 31.12025452 -3.05641174 31.12025452 C-3.06164856 30.21670227 -3.06688538 29.31315002 -3.07228088 28.38221741 C-3.0892886 25.04073962 -3.10184508 21.6993076 -3.11134338 18.35780334 C-3.11638275 16.90955379 -3.12321427 15.46130935 -3.1318512 14.01307678 C-3.14393421 11.93550864 -3.14964386 9.85800754 -3.15406799 7.78041077 C-3.15930481 6.52881165 -3.16454163 5.27721252 -3.16993713 3.98768616 C-3.01904914 0.17654747 -3.01904914 0.17654747 0 0 Z " fill="#DCF7FD" transform="translate(100.05641174316406,206.87974548339844)"/>
<path d="M0 0 C3.17625 0.0825 6.3525 0.165 9.625 0.25 C9.625 9.16 9.625 18.07 9.625 27.25 C8.965 27.25 8.305 27.25 7.625 27.25 C7.625 20.32 7.625 13.39 7.625 6.25 C6.965 6.25 6.305 6.25 5.625 6.25 C5.625 5.59 5.625 4.93 5.625 4.25 C1.21437864 3.2242741 -1.30130576 3.21315288 -5.375 5.25 C-5.045 4.26 -4.715 3.27 -4.375 2.25 C-6.025 1.92 -7.675 1.59 -9.375 1.25 C-9.705 2.57 -10.035 3.89 -10.375 5.25 C-8.065 5.58 -5.755 5.91 -3.375 6.25 C-3.99375 6.53875 -4.6125 6.8275 -5.25 7.125 C-7.50825765 8.18720042 -7.50825765 8.18720042 -9.375 10.25 C-9.87514953 12.70741537 -9.87514953 12.70741537 -9.375 15.25 C-7.4745533 17.09315671 -7.4745533 17.09315671 -5.375 18.25 C-10 21.25 -10 21.25 -13.375 21.25 C-13.375 21.91 -13.375 22.57 -13.375 23.25 C-14.035 23.25 -14.695 23.25 -15.375 23.25 C-18.5700441 18.35758872 -20.15574782 15.27291176 -19.375 9.25 C-15.6645916 0.3862466 -8.51381374 -0.31332387 0 0 Z " fill="#C7CDD5" transform="translate(270.375,222.75)"/>
<path d="M0 0 C2.62441587 1.03957444 3.87407214 2.04190855 6 4 C6.33 4.99 6.66 5.98 7 7 C6.34 7 5.68 7 5 7 C4.67 9.97 4.34 12.94 4 16 C3.01 16 2.02 16 1 16 C0.71125 16.61875 0.4225 17.2375 0.125 17.875 C-1 20 -1 20 -3 22 C-6.125 22.125 -6.125 22.125 -9 22 C-9.33 20.02 -9.66 18.04 -10 16 C-6.5647952 13.70986347 -5.014669 13.82157027 -1 14 C-1 13.34 -1 12.68 -1 12 C-5.29 12 -9.58 12 -14 12 C-10.79619983 9.86413322 -9.98060033 9.76867825 -6.3125 9.875 C-5.10013672 9.90207031 -5.10013672 9.90207031 -3.86328125 9.9296875 C-2.94095703 9.96449219 -2.94095703 9.96449219 -2 10 C-2.33 9.34 -2.66 8.68 -3 8 C-7.16138263 7.91840426 -10.9472484 8.01751476 -15 9 C-15.33 7.02 -15.66 5.04 -16 3 C-11.23256082 -0.94546691 -5.8780586 -0.79177363 0 0 Z M-8 16 C-8 17.32 -8 18.64 -8 20 C-6.35 20 -4.7 20 -3 20 C-2.34 18.68 -1.68 17.36 -1 16 C-3.31 16 -5.62 16 -8 16 Z " fill="#B3BDCB" transform="translate(241,223)"/>
<path d="M0 0 C2.05078125 0.03255208 4.1015625 0.06510417 6.15234375 0.09765625 C5.83681131 8.07471075 2.56004563 14.41745635 -0.84765625 21.53515625 C-1.41373984 22.74237976 -1.97885229 23.95005915 -2.54296875 25.15820312 C-6.66497298 33.91497298 -6.66497298 33.91497298 -7.84765625 35.09765625 C-11.22265625 35.47265625 -11.22265625 35.47265625 -14.84765625 35.09765625 C-16.78515625 32.59765625 -16.78515625 32.59765625 -17.84765625 30.09765625 C-16.85765625 30.42765625 -15.86765625 30.75765625 -14.84765625 31.09765625 C-14.84765625 31.75765625 -14.84765625 32.41765625 -14.84765625 33.09765625 C-12.53765625 33.09765625 -10.22765625 33.09765625 -7.84765625 33.09765625 C-7.51765625 29.79765625 -7.18765625 26.49765625 -6.84765625 23.09765625 C-9.15765625 22.76765625 -11.46765625 22.43765625 -13.84765625 22.09765625 C-13.51765625 20.77765625 -13.18765625 19.45765625 -12.84765625 18.09765625 C-11.85765625 19.08765625 -10.86765625 20.07765625 -9.84765625 21.09765625 C-9.59242188 20.31455078 -9.59242188 20.31455078 -9.33203125 19.515625 C-2.95804765 0.15634501 -2.95804765 0.15634501 0 0 Z " fill="#AFB5C1" transform="translate(219.84765625,214.90234375)"/>
<path d="M0 0 C2.97 0 5.94 0 9 0 C9.02465098 4.96622349 9.04283649 9.93241166 9.05493164 14.89868164 C9.0599719 16.58944316 9.06680405 18.28020029 9.07543945 19.97094727 C9.08751857 22.39600707 9.09323123 24.82100944 9.09765625 27.24609375 C9.10281754 28.00651474 9.10797882 28.76693573 9.11329651 29.55039978 C9.11349238 31.3673257 9.06197277 33.18413127 9 35 C6.64232343 37.35767657 0.91251856 36.28100081 -2.25 36.3125 C-3.68279297 36.35600586 -3.68279297 36.35600586 -5.14453125 36.40039062 C-12.23769396 36.46451518 -12.23769396 36.46451518 -16.08984375 34.1171875 C-19.98241048 29.80272703 -20.35303422 25.76998061 -20.17578125 20.14453125 C-19.9393946 17.26061418 -19.60490035 15.44223967 -18 13 C-12.65682882 8.96536053 -8.58323547 8.46259302 -2 9 C-2 9.33 -2 9.66 -2 10 C-3.98 10.33 -5.96 10.66 -8 11 C-7.01 11.66 -6.02 12.32 -5 13 C-5.928125 13.8971875 -5.928125 13.8971875 -6.875 14.8125 C-10.05254783 18.08350512 -11.28054623 20.56336842 -12 25 C-12.99 24.67 -13.98 24.34 -15 24 C-15.33 21.69 -15.66 19.38 -16 17 C-18.61509519 22.23019038 -16.51094853 27.71168014 -15 33 C-7.74 33.33 -0.48 33.66 7 34 C7 23.11 7 12.22 7 1 C4.69 1 2.38 1 0 1 C0 0.67 0 0.34 0 0 Z " fill="#B7BCC6" transform="translate(366,214)"/>
<path d="M0 0 C6.7186905 1.99613268 12.80734808 4.7291421 19 8 C19 8.99 19 9.98 19 11 C-28.85 11 -76.7 11 -126 11 C-125.67 9.68 -125.34 8.36 -125 7 C-123.68 6.67 -122.36 6.34 -121 6 C-121 6.99 -121 7.98 -121 9 C-78.1 9 -35.2 9 9 9 C9 8.01 9 7.02 9 6 C7.35 5.67 5.7 5.34 4 5 C3.67 4.01 3.34 3.02 3 2 C2.01 2 1.02 2 0 2 C0 1.34 0 0.68 0 0 Z " fill="#0062A3" transform="translate(181,262)"/>
<path d="M0 0 C0 0.66 0 1.32 0 2 C0.66 2 1.32 2 2 2 C1.25 6.75 1.25 6.75 -1 9 C-3.66821189 8.71913559 -5.61185709 8.2253733 -7.9375 6.875 C-10.97511829 5.58631345 -12.87269864 6.08787044 -16 7 C-18.27144074 8.85432087 -18.27144074 8.85432087 -20 11 C-20.66 11.66 -21.32 12.32 -22 13 C-22 10.69 -22 8.38 -22 6 C-23.32 6 -24.64 6 -26 6 C-26 6.66 -26 7.32 -26 8 C-26.66 8 -27.32 8 -28 8 C-27.43491477 4.52660947 -26.37356664 3.04993024 -23.6875 0.8125 C-22.79611328 0.04873047 -22.79611328 0.04873047 -21.88671875 -0.73046875 C-15.20915022 -5.22365668 -6.67061563 -3.40627181 0 0 Z " fill="#D6D9E1" transform="translate(314,217)"/>
<path d="M0 0 C1.49080078 0.02707031 1.49080078 0.02707031 3.01171875 0.0546875 C3.77097656 0.07789063 4.53023438 0.10109375 5.3125 0.125 C5.3125 0.785 5.3125 1.445 5.3125 2.125 C4.3225 2.125 3.3325 2.125 2.3125 2.125 C1.9825 3.115 1.6525 4.105 1.3125 5.125 C-0.6675 5.455 -2.6475 5.785 -4.6875 6.125 C-5.06624801 12.03617828 -5.06624801 12.03617828 -3.625 17.6875 C-0.71516357 19.8464109 1.8032966 19.38984554 5.3125 19.125 C5.3125 19.455 5.3125 19.785 5.3125 20.125 C3.6625 20.125 2.0125 20.125 0.3125 20.125 C-0.0175 21.445 -0.3475 22.765 -0.6875 24.125 C-2.3375 24.125 -3.9875 24.125 -5.6875 24.125 C-5.6875 23.465 -5.6875 22.805 -5.6875 22.125 C-6.6775 22.125 -7.6675 22.125 -8.6875 22.125 C-8.6875 20.805 -8.6875 19.485 -8.6875 18.125 C-10.0075 17.795 -11.3275 17.465 -12.6875 17.125 C-13.31403784 8.16202815 -13.31403784 8.16202815 -10.875 4.125 C-7.0877521 0.66237334 -5.04757608 -0.1187665 0 0 Z " fill="#DDDFE3" transform="translate(328.6875,223.875)"/>
<path d="M0 0 C4.84505578 0.10487134 7.57175618 1.05560923 11.25 4.375 C14.17675987 8.08222917 14.5759948 10.70240781 14.25 15.375 C12.27 15.375 10.29 15.375 8.25 15.375 C9.57 15.045 10.89 14.715 12.25 14.375 C10.02735083 12.15235083 4.21454427 12.9696319 1.06445312 12.85742188 C-4.53671875 12.58828125 -4.53671875 12.58828125 -6.75 10.375 C-6.09 8.395 -5.43 6.415 -4.75 4.375 C-3.1 4.045 -1.45 3.715 0.25 3.375 C0.58 4.035 0.91 4.695 1.25 5.375 C2.24 5.375 3.23 5.375 4.25 5.375 C4.25 4.055 4.25 2.735 4.25 1.375 C0.62 1.705 -3.01 2.035 -6.75 2.375 C-4.28003576 -0.09496424 -3.41102667 0.05168222 0 0 Z M-1.75 7.375 C-2.74 8.86 -2.74 8.86 -3.75 10.375 C-0.78 10.375 2.19 10.375 5.25 10.375 C4.59 9.385 3.93 8.395 3.25 7.375 C0.75 6.875 0.75 6.875 -1.75 7.375 Z " fill="#B5BBC7" transform="translate(390.75,222.625)"/>
<path d="M0 0 C1.32 0.66 2.64 1.32 4 2 C4 3.65 4 5.3 4 7 C6.31 7 8.62 7 11 7 C12.26264601 11.29299643 11.62950412 13.87831311 10 18 C6.75 18.3125 6.75 18.3125 3 18 C-0.16831196 15.33194782 -1.2085314 12.92667533 -1.8125 8.9375 C-2.06382979 3.65957447 -2.06382979 3.65957447 -1 1 C-0.67 0.67 -0.34 0.34 0 0 Z " fill="#DCDEE3" transform="translate(202,230)"/>
<path d="M0 0 C3.51635308 0.68611767 5.14154909 1.87153902 7.5625 4.5 C8.1975915 8.85491313 7.57373961 10.47752078 5.5625 14.5 C2.5925 14.5 -0.3775 14.5 -3.4375 14.5 C-4.0975 13.18 -4.7575 11.86 -5.4375 10.5 C-4.7775 10.5 -4.1175 10.5 -3.4375 10.5 C-3.78194881 8.02733235 -3.78194881 8.02733235 -4.4375 5.5 C-5.0975 5.17 -5.7575 4.84 -6.4375 4.5 C-4.3850612 2.06747995 -3.17004965 0.65026659 0 0 Z " fill="#CDF3FC" transform="translate(155.4375,217.5)"/>
<path d="M0 0 C0 1.98 0 3.96 0 6 C-11.22 5.67 -22.44 5.34 -34 5 C-34 8.3 -34 11.6 -34 15 C-34.66 15 -35.32 15 -36 15 C-36 10.71 -36 6.42 -36 2 C-35.01080566 1.97494385 -34.02161133 1.9498877 -33.00244141 1.92407227 C-29.33840596 1.83002213 -25.67456115 1.72979571 -22.01074219 1.62768555 C-20.42387343 1.58432759 -18.83695776 1.54265313 -17.25 1.50268555 C-14.97121021 1.44500368 -12.69265678 1.38130362 -10.4140625 1.31640625 C-9.70255035 1.29969376 -8.99103821 1.28298126 -8.25796509 1.26576233 C-5.39351025 1.17926836 -2.6047359 0 0 0 Z " fill="#EBFEFE" transform="translate(152,222)"/>
<path d="M0 0 C6.98629919 -0.50604984 11.20200116 -0.0333905 17 4 C17 4.66 17 5.32 17 6 C16.34 6 15.68 6 15 6 C14.67 7.32 14.34 8.64 14 10 C13.34 9.67 12.68 9.34 12 9 C12.3403125 10.8871875 12.3403125 10.8871875 12.6875 12.8125 C13.17047635 16.70390949 13.17047635 16.70390949 11.8125 19.0625 C10 20 10 20 7.8125 19.6875 C7.214375 19.460625 6.61625 19.23375 6 19 C7.32 18.34 8.64 17.68 10 17 C10.16677282 13.58343976 10.16677282 13.58343976 10 10 C8.17296773 7.7508092 8.17296773 7.7508092 5.5 7.75 C2.82703227 7.7508092 2.82703227 7.7508092 1 10 C0.75746187 12.21072977 0.75746187 12.21072977 0.875 14.625 C0.89304687 15.44226563 0.91109375 16.25953125 0.9296875 17.1015625 C0.95289063 17.72804687 0.97609375 18.35453125 1 19 C2.32 19.33 3.64 19.66 5 20 C3.68 20.33 2.36 20.66 1 21 C-0.94918144 18.58301501 -2.00815254 16.81253599 -1.9765625 13.6640625 C-1.71537901 11.42635527 -1.40084514 9.21672195 -1 7 C-0.030625 6.71125 0.93875 6.4225 1.9375 6.125 C5.10664203 5.35785318 5.10664203 5.35785318 6 3 C6.99 3 7.98 3 9 3 C9 2.34 9 1.68 9 1 C6.03 1 3.06 1 0 1 C0 0.67 0 0.34 0 0 Z " fill="#B0B6C1" transform="translate(325,223)"/>
<path d="M0 0 C0.56855531 2.19299905 1.04645634 4.31745166 1.375 6.5625 C2.07422141 9.28946352 2.96754024 10.14427587 5 12 C5 12.66 5 13.32 5 14 C8.63 14 12.26 14 16 14 C15.67 14.99 15.34 15.98 15 17 C17.31 17 19.62 17 22 17 C22 17.33 22 17.66 22 18 C17.9280022 18.95993865 14.0545943 19.19675676 9.875 19.25 C8.65554688 19.27578125 7.43609375 19.3015625 6.1796875 19.328125 C3 19 3 19 1.14453125 17.625 C-1.94959785 13.23197029 -2.38622497 9.3105933 -2 4 C-1 1.5625 -1 1.5625 0 0 Z " fill="#E3E5E8" transform="translate(350,229)"/>
<path d="M0 0 C0.33 0.66 0.66 1.32 1 2 C2.98 2 4.96 2 7 2 C7 2.66 7 3.32 7 4 C7.66 4 8.32 4 9 4 C9.66 3.01 10.32 2.02 11 1 C12 2 12 2 12.3125 4.8125 C12 8 12 8 10.4375 10.375 C7.05688738 12.62874175 4.9752261 12.65049154 1 12 C-1 9.875 -1 9.875 -2 7 C-1.58333333 1.58333333 -1.58333333 1.58333333 0 0 Z " fill="#D7F8FD" transform="translate(93,239)"/>
<path d="M0 0 C1.32 0 2.64 0 4 0 C4.05379226 2.95857409 4.09357093 5.91617721 4.125 8.875 C4.14175781 9.71675781 4.15851563 10.55851563 4.17578125 11.42578125 C4.18222656 12.23144531 4.18867188 13.03710938 4.1953125 13.8671875 C4.20578613 14.61081543 4.21625977 15.35444336 4.22705078 16.12060547 C4 18 4 18 2 20 C2 19.34 2 18.68 2 18 C1.34 18 0.68 18 0 18 C-2.34811426 15.65757124 -2.9694088 14.31488541 -3.29296875 10.984375 C-3.25816406 9.91703125 -3.22335937 8.8496875 -3.1875 7.75 C-3.14689453 6.13351563 -3.14689453 6.13351563 -3.10546875 4.484375 C-3.07066406 3.66453125 -3.03585937 2.8446875 -3 2 C-2.01 2 -1.02 2 0 2 C0 1.34 0 0.68 0 0 Z " fill="#E4E6E7" transform="translate(288,223)"/>
<path d="M0 0 C0.66 0 1.32 0 2 0 C2 5.94 2 11.88 2 18 C-1.3 18 -4.6 18 -8 18 C-7.47557578 14.2241456 -6.67345333 11.77627845 -4 9 C-3.01 9 -2.02 9 -1 9 C-0.67 6.03 -0.34 3.06 0 0 Z " fill="#E2E7F0" transform="translate(246,230)"/>
<path d="M0 0 C0 0.66 0 1.32 0 2 C-1.32 2.33 -2.64 2.66 -4 3 C-3.67 4.32 -3.34 5.64 -3 7 C-4.5778125 7.2165625 -4.5778125 7.2165625 -6.1875 7.4375 C-9.15460549 7.87526966 -12.06794366 8.37804866 -15 9 C-15.33 7.02 -15.66 5.04 -16 3 C-11.14640505 -1.01676824 -5.95027665 -0.28136159 0 0 Z " fill="#A1ABB9" transform="translate(241,223)"/>
<path d="M0 0 C0.99 0 1.98 0 3 0 C4.09506492 3.28519475 4.09960608 5.73663415 4.0625 9.1875 C4.05347656 10.27417969 4.04445313 11.36085937 4.03515625 12.48046875 C4.02355469 13.31191406 4.01195312 14.14335937 4 15 C1.69 15 -0.62 15 -3 15 C-3.33 14.34 -3.66 13.68 -4 13 C-5.093125 13.061875 -6.18625 13.12375 -7.3125 13.1875 C-11 13 -11 13 -12.9375 11.5 C-13.288125 11.005 -13.63875 10.51 -14 10 C-13.67 9.34 -13.34 8.68 -13 8 C-12.67 8.99 -12.34 9.98 -12 11 C-10.0509375 10.814375 -10.0509375 10.814375 -8.0625 10.625 C-7.33160156 10.55539063 -6.60070312 10.48578125 -5.84765625 10.4140625 C-4.93306641 10.20910156 -4.93306641 10.20910156 -4 10 C-3.67 9.34 -3.34 8.68 -3 8 C-2.34 8 -1.68 8 -1 8 C-0.67 5.36 -0.34 2.72 0 0 Z " fill="#E6E6E4" transform="translate(368,231)"/>
<path d="M0 0 C2.97 0 5.94 0 9 0 C9.02465098 4.96622349 9.04283649 9.93241166 9.05493164 14.89868164 C9.0599719 16.58944316 9.06680405 18.28020029 9.07543945 19.97094727 C9.08751857 22.39600707 9.09323123 24.82100944 9.09765625 27.24609375 C9.10281754 28.00651474 9.10797882 28.76693573 9.11329651 29.55039978 C9.11349238 31.3673257 9.06197277 33.18413127 9 35 C8 36 8 36 4.4375 36.0625 C3.303125 36.041875 2.16875 36.02125 1 36 C1 35.34 1 34.68 1 34 C2.98 34 4.96 34 7 34 C7 23.11 7 12.22 7 1 C4.69 1 2.38 1 0 1 C0 0.67 0 0.34 0 0 Z " fill="#80899C" transform="translate(366,214)"/>
<path d="M0 0 C5.99932374 1.8331267 11.44920563 4.07321751 17 7 C17 7.99 17 8.98 17 10 C5.45 10 -6.1 10 -18 10 C-18 9.67 -18 9.34 -18 9 C-9.09 9 -0.18 9 9 9 C9 8.01 9 7.02 9 6 C6.525 5.505 6.525 5.505 4 5 C3.67 4.01 3.34 3.02 3 2 C2.01 2 1.02 2 0 2 C0 1.34 0 0.68 0 0 Z " fill="#0586BF" transform="translate(181,262)"/>
<path d="M0 0 C6.27906977 0.34883721 6.27906977 0.34883721 8.9375 2.75 C10.20345869 5.4308537 10.46236667 7.07167776 10 10 C9.01 10.66 8.02 11.32 7 12 C7 11.01 7 10.02 7 9 C5.02 9.33 3.04 9.66 1 10 C0.20046862 6.71303767 -0.09658936 5.28976808 1 2 C0.34 1.67 -0.32 1.34 -1 1 C-0.67 0.67 -0.34 0.34 0 0 Z " fill="#D9F7FC" transform="translate(153,237)"/>
<path d="M0 0 C2.64 0 5.28 0 8 0 C8 8.91 8 17.82 8 27 C7.34 27 6.68 27 6 27 C6 20.07 6 13.14 6 6 C5.34 6 4.68 6 4 6 C4 5.34 4 4.68 4 4 C2.68 3.34 1.36 2.68 0 2 C0 1.34 0 0.68 0 0 Z " fill="#909DAB" transform="translate(272,223)"/>
<path d="M0 0 C0 0.66 0 1.32 0 2 C-0.84820312 1.67257813 -1.69640625 1.34515625 -2.5703125 1.0078125 C-6.20190011 -0.05932828 -9.10336301 -0.20197218 -12.875 -0.125 C-14.02742188 -0.10695312 -15.17984375 -0.08890625 -16.3671875 -0.0703125 C-17.23601562 -0.04710937 -18.10484375 -0.02390625 -19 0 C-19.12375 0.61875 -19.2475 1.2375 -19.375 1.875 C-20 4 -20 4 -22 6 C-23.32 6 -24.64 6 -26 6 C-26 6.66 -26 7.32 -26 8 C-26.66 8 -27.32 8 -28 8 C-27.43491477 4.52660947 -26.37356664 3.04993024 -23.6875 0.8125 C-22.79611328 0.04873047 -22.79611328 0.04873047 -21.88671875 -0.73046875 C-15.20915022 -5.22365668 -6.67061563 -3.40627181 0 0 Z " fill="#898F9F" transform="translate(314,217)"/>
<path d="M0 0 C2.05078125 0.21484375 2.05078125 0.21484375 4.3125 0.9375 C8.5088683 2.06887381 10.96316677 1.8631538 15 0 C15 0.66 15 1.32 15 2 C13.35 2.66 11.7 3.32 10 4 C12.31 4.33 14.62 4.66 17 5 C17 5.66 17 6.32 17 7 C14.75059705 7.08119503 12.50035129 7.13927819 10.25 7.1875 C8.99703125 7.22230469 7.7440625 7.25710938 6.453125 7.29296875 C2.80043108 6.98306825 1.62302772 6.43304206 -1 4 C-1.66 3.67 -2.32 3.34 -3 3 C-1.76953125 1.44140625 -1.76953125 1.44140625 0 0 Z " fill="#DCDFE6" transform="translate(257,251)"/>
<path d="M0 0 C0.66 0.33 1.32 0.66 2 1 C2 1.66 2 2.32 2 3 C-4.70704093 6.229316 -8.89519555 6.02370454 -16 4 C-15.67 4.66 -15.34 5.32 -15 6 C-14.67 6.66 -14.34 7.32 -14 8 C-10.83754459 9.0541518 -8.13051782 9.31275672 -4.8125 9.5625 C-3.72582031 9.64628906 -2.63914062 9.73007812 -1.51953125 9.81640625 C-0.68808594 9.87699219 0.14335937 9.93757813 1 10 C1 10.33 1 10.66 1 11 C-1.0622048 11.054348 -3.12482816 11.09294961 -5.1875 11.125 C-6.33605469 11.14820313 -7.48460937 11.17140625 -8.66796875 11.1953125 C-11.95174252 11.00282869 -14.09907059 10.51352839 -17 9 C-18.3125 6.875 -18.3125 6.875 -19 5 C-18.01 3.68 -17.02 2.36 -16 1 C-15.505 1.144375 -15.01 1.28875 -14.5 1.4375 C-7.73026884 2.98896822 -7.73026884 2.98896822 -1 2 C-0.67 1.34 -0.34 0.68 0 0 Z " fill="#8C95A6" transform="translate(271,248)"/>
<path d="M0 0 C1.38572794 0.28547185 2.75949318 0.62969306 4.125 1 C8.49511471 2.04882753 11.62841292 1.93012491 16 1 C16.33 2.32 16.66 3.64 17 5 C13.53777385 6.06723961 10.35960734 6.10173486 6.75 6.0625 C5.67234375 6.05347656 4.5946875 6.04445312 3.484375 6.03515625 C2.66453125 6.02355469 1.8446875 6.01195312 1 6 C0.34 4.35 -0.32 2.7 -1 1 C-0.67 0.67 -0.34 0.34 0 0 Z M-3 2 C-1 3 -1 3 -1 3 Z " fill="#E2E5EB" transform="translate(385,242)"/>
<path d="M0 0 C0.66 0 1.32 0 2 0 C2 0.66 2 1.32 2 2 C2.66 2 3.32 2 4 2 C4 3.65 4 5.3 4 7 C5.32 6.67 6.64 6.34 8 6 C8.99 7.485 8.99 7.485 10 9 C13.35503476 9.36558117 13.35503476 9.36558117 17.125 9.1875 C18.40632813 9.16042969 19.68765625 9.13335937 21.0078125 9.10546875 C22.48894531 9.05326172 22.48894531 9.05326172 24 9 C23.01 10.485 23.01 10.485 22 12 C19.13671875 12.3984375 19.13671875 12.3984375 15.6875 12.375 C14.55699219 12.38273438 13.42648437 12.39046875 12.26171875 12.3984375 C8.69577319 11.96283696 6.85781857 11.13584335 4 9 C0 3.81081081 0 3.81081081 0 0 Z " fill="#A3AABD" transform="translate(377,238)"/>
<path d="M0 0 C0.99 0.33 1.98 0.66 3 1 C3 2.98 3 4.96 3 7 C-0.14930893 8.04976964 -2.38814456 8.10131595 -5.6875 8.0625 C-6.68136719 8.05347656 -7.67523438 8.04445312 -8.69921875 8.03515625 C-9.83810547 8.01775391 -9.83810547 8.01775391 -11 8 C-10.67 6.68 -10.34 5.36 -10 4 C-5.545 3.505 -5.545 3.505 -1 3 C-0.67 2.01 -0.34 1.02 0 0 Z " fill="#E2E5E9" transform="translate(310,240)"/>
<path d="M0 0 C1.62463842 -0.05395478 3.24978541 -0.09277195 4.875 -0.125 C5.77992188 -0.14820313 6.68484375 -0.17140625 7.6171875 -0.1953125 C10 0 10 0 12 2 C11.9765625 4.1640625 11.9765625 4.1640625 11.625 6.625 C11.45871094 7.85089844 11.45871094 7.85089844 11.2890625 9.1015625 C11.14597656 10.04128906 11.14597656 10.04128906 11 11 C10.46375 10.34 9.9275 9.68 9.375 9 C7.10041408 6.68975201 7.10041408 6.68975201 3.75 6.75 C2.8425 6.8325 1.935 6.915 1 7 C1.66 5.68 2.32 4.36 3 3 C2.01 2.01 1.02 1.02 0 0 Z " fill="#C2C3CE" transform="translate(356,224)"/>
<path d="M0 0 C1.67542976 0.28604898 3.34385343 0.61781233 5 1 C4.979375 1.804375 4.95875 2.60875 4.9375 3.4375 C4.70366379 5.93354885 4.70366379 5.93354885 6 7 C6 5.35 6 3.7 6 2 C6.66 2 7.32 2 8 2 C8.33 1.34 8.66 0.68 9 0 C9.35430394 3.18873549 9.25953249 4.61589191 7.4375 7.3125 C4.185351 9.56398777 1.86806995 9.29754384 -2 9 C-1.34 8.34 -0.68 7.68 0 7 C-0.33 6.67 -0.66 6.34 -1 6 C-1.125 3.5 -1.125 3.5 -1 1 C-0.67 0.67 -0.34 0.34 0 0 Z " fill="#D2F6FC" transform="translate(154,203)"/>
<path d="M0 0 C3.3 0 6.6 0 10 0 C10 3.60964568 9.96912042 5.72921858 9 9 C8.67 8.67 8.34 8.34 8 8 C5.54190002 7.7499227 5.54190002 7.7499227 3 8 C0.78629949 9.78657757 0.78629949 9.78657757 0.8046875 12.1640625 C0.82789063 12.97617188 0.85109375 13.78828125 0.875 14.625 C0.89304687 15.44226563 0.91109375 16.25953125 0.9296875 17.1015625 C0.95289063 17.72804687 0.97609375 18.35453125 1 19 C2.32 19.33 3.64 19.66 5 20 C3.68 20.33 2.36 20.66 1 21 C-0.94918144 18.58301501 -2.00815254 16.81253599 -1.9765625 13.6640625 C-1.71537901 11.42635527 -1.40084514 9.21672195 -1 7 C-0.030625 6.71125 0.93875 6.4225 1.9375 6.125 C5.10664203 5.35785318 5.10664203 5.35785318 6 3 C6.99 3 7.98 3 9 3 C9 2.34 9 1.68 9 1 C6.03 1 3.06 1 0 1 C0 0.67 0 0.34 0 0 Z " fill="#9097AA" transform="translate(325,223)"/>
<path d="M0 0 C0.66 0 1.32 0 2 0 C2.33 1.65 2.66 3.3 3 5 C5.97 5.495 5.97 5.495 9 6 C9 4.35 9 2.7 9 1 C9.66 1 10.32 1 11 1 C11.36 6.4 11.36 6.4 9.875 8.875 C7.15781176 10.50531294 5.10347254 10.33015665 2 10 C0 8 0 8 -0.1953125 6.0546875 C-0.13020833 4.03645833 -0.06510417 2.01822917 0 0 Z " fill="#E0FBFE" transform="translate(112,241)"/>
<path d="M0 0 C6.39075249 -0.36174071 6.39075249 -0.36174071 9 1.1875 C10 3 10 3 9.75 5.5 C9.19717158 7.34276141 8.60839041 9.17482878 8 11 C7.34 10.67 6.68 10.34 6 10 C6 8.35 6 6.7 6 5 C4.68 5 3.36 5 2 5 C1.01 6.485 1.01 6.485 0 8 C0 6.68 0 5.36 0 4 C-0.66 4 -1.32 4 -2 4 C-1.34 2.68 -0.68 1.36 0 0 Z " fill="#ECFCFE" transform="translate(152,199)"/>
<path d="M0 0 C0.33 0.66 0.66 1.32 1 2 C0.34 3.32 -0.32 4.64 -1 6 C-5.29 6 -9.58 6 -14 6 C-14 5.34 -14 4.68 -14 4 C-4.58997722 0.74031891 -4.58997722 0.74031891 0 0 Z " fill="#DFE3E9" transform="translate(271,240)"/>
<path d="M0 0 C0.99 0.33 1.98 0.66 3 1 C4.56118428 1.06740865 6.1250252 1.08514456 7.6875 1.0625 C8.49574219 1.05347656 9.30398437 1.04445312 10.13671875 1.03515625 C10.75160156 1.02355469 11.36648437 1.01195312 12 1 C12 2.65 12 4.3 12 6 C11.39671875 5.98839844 10.7934375 5.97679687 10.171875 5.96484375 C9.37265625 5.95582031 8.5734375 5.94679687 7.75 5.9375 C6.96109375 5.92589844 6.1721875 5.91429687 5.359375 5.90234375 C3.09308998 5.99614694 1.1711105 6.36758937 -1 7 C-0.67 4.69 -0.34 2.38 0 0 Z " fill="#F2FCFE" transform="translate(140,241)"/>
<path d="M0 0 C1.32 0.33 2.64 0.66 4 1 C4 2.32 4 3.64 4 5 C4.99 5 5.98 5 7 5 C7 5.66 7 6.32 7 7 C11.95 7 16.9 7 22 7 C22 6.34 22 5.68 22 5 C22.99 5.33 23.98 5.66 25 6 C24.34 6 23.68 6 23 6 C23 6.66 23 7.32 23 8 C19.83990467 9.05336511 17.4446864 9.20032888 14.125 9.25 C12.58199219 9.28867188 12.58199219 9.28867188 11.0078125 9.328125 C7.55762836 8.95174128 5.75589561 8.08019441 3 6 C1.1875 2.8125 1.1875 2.8125 0 0 Z " fill="#A7B0C2" transform="translate(316,241)"/>
<path d="M0 0 C0.66 1.32 1.32 2.64 2 4 C0.35 4.66 -1.3 5.32 -3 6 C-0.69 6 1.62 6 4 6 C3.67 5.34 3.34 4.68 3 4 C3.99 4.33 4.98 4.66 6 5 C6 5.99 6 6.98 6 8 C1.71 8 -2.58 8 -7 8 C-6.40138258 5.64828869 -5.73075648 3.3140622 -5 1 C-3 0 -3 0 0 0 Z " fill="#A8B0BA" transform="translate(391,226)"/>
<path d="M0 0 C0.66 0.33 1.32 0.66 2 1 C3.54023996 1.06950541 5.08334988 1.08452357 6.625 1.0625 C7.44226563 1.05347656 8.25953125 1.04445312 9.1015625 1.03515625 C9.72804687 1.02355469 10.35453125 1.01195312 11 1 C9.69921875 2.48828125 9.69921875 2.48828125 8 4 C4.8125 4.1875 4.8125 4.1875 2 4 C2 4.99 2 5.98 2 7 C3.11375 6.938125 4.2275 6.87625 5.375 6.8125 C7.169375 6.9053125 7.169375 6.9053125 9 7 C9.99 8.485 9.99 8.485 11 10 C9.01432292 9.70703125 7.02864583 9.4140625 5.04296875 9.12109375 C2.7974658 8.86095201 2.7974658 8.86095201 0 10 C0 9.34 0 8.68 0 8 C-0.66 7.67 -1.32 7.34 -2 7 C-1.67 6.21625 -1.34 5.4325 -1 4.625 C0.11866511 2.15667503 0.11866511 2.15667503 0 0 Z " fill="#6DD6F7" transform="translate(150,210)"/>
<path d="M0 0 C0.66 0 1.32 0 2 0 C2 1.32 2 2.64 2 4 C3.32 4.33 4.64 4.66 6 5 C6 4.34 6 3.68 6 3 C7.32 2.67 8.64 2.34 10 2 C10.66 3.65 11.32 5.3 12 7 C10.68 6.67 9.36 6.34 8 6 C7.34 8.31 6.68 10.62 6 13 C2.57068046 9.2440786 1.43570917 4.76533255 0 0 Z " fill="#A7AFBA" transform="translate(194,225)"/>
<path d="M0 0 C1.134375 0.020625 2.26875 0.04125 3.4375 0.0625 C3.1075 2.3725 2.7775 4.6825 2.4375 7.0625 C1.4475 6.4025 0.4575 5.7425 -0.5625 5.0625 C-1.5525 6.5475 -1.5525 6.5475 -2.5625 8.0625 C-3.2225 8.0625 -3.8825 8.0625 -4.5625 8.0625 C-4.60491723 5.72955225 -4.60342937 3.39547433 -4.5625 1.0625 C-3.5625 0.0625 -3.5625 0.0625 0 0 Z " fill="#B2BBCD" transform="translate(221.5625,214.9375)"/>
<path d="M0 0 C2.64 0 5.28 0 8 0 C6.68 1.32 5.36 2.64 4 4 C5.98 3.01 7.96 2.02 10 1 C10.33 2.32 10.66 3.64 11 5 C6.48281619 6.36884358 3.41225737 5.47075246 -1 4 C-0.67 2.68 -0.34 1.36 0 0 Z " fill="#E3E7EB" transform="translate(261,224)"/>
<path d="M0 0 C1.5 1 1.5 1 3 3 C3.55983509 8.69165673 3.00233171 11.99611382 0 17 C-0.66 16.67 -1.32 16.34 -2 16 C-2 15.34 -2 14.68 -2 14 C-1.34 14 -0.68 14 0 14 C0.06859127 11.53071428 0.1093669 9.38886007 -0.5625 7 C-1.12252081 4.43990488 -0.62918378 2.51673514 0 0 Z " fill="#99A3B4" transform="translate(342,229)"/>
<path d="M0 0 C0.66 0 1.32 0 2 0 C2.33 1.65 2.66 3.3 3 5 C8.28 5.33 13.56 5.66 19 6 C16.33515635 8.66484365 14.90120172 8.32920836 11.1875 8.375 C7.17680977 8.31248325 5.34903894 8.19847312 1.8125 6.1875 C0 4 0 4 -1 1 C-0.67 0.67 -0.34 0.34 0 0 Z " fill="#A0ABBA" transform="translate(348,242)"/>
<path d="M0 0 C1.32 0 2.64 0 4 0 C4 1.98 4 3.96 4 6 C3.01 6.495 3.01 6.495 2 7 C2 6.34 2 5.68 2 5 C1.01 5.33 0.02 5.66 -1 6 C-1.33 8.64 -1.66 11.28 -2 14 C-2.33 14 -2.66 14 -3 14 C-3 10.04 -3 6.08 -3 2 C-2.01 2 -1.02 2 0 2 C0 1.34 0 0.68 0 0 Z " fill="#D9DEE3" transform="translate(288,223)"/>
<path d="M0 0 C2.0625 1.75 2.0625 1.75 4 4 C3.75 6.25 3.75 6.25 3 8 C2.67 7.01 2.34 6.02 2 5 C1.39671875 5.08378906 0.7934375 5.16757813 0.171875 5.25390625 C-0.62734375 5.35574219 -1.4265625 5.45757812 -2.25 5.5625 C-3.03890625 5.66691406 -3.8278125 5.77132812 -4.640625 5.87890625 C-7.00532874 6.00027349 -8.7511037 5.69633257 -11 5 C-11 4.34 -11 3.68 -11 3 C-8.03 3 -5.06 3 -2 3 C-2 2.34 -2 1.68 -2 1 C-1.34 0.67 -0.68 0.34 0 0 Z " fill="#8694A3" transform="translate(399,239)"/>
<path d="M0 0 C0.99 0 1.98 0 3 0 C2.125 4.75 2.125 4.75 1 7 C-1.31 7 -3.62 7 -6 7 C-6.33 6.01 -6.66 5.02 -7 4 C-3.535 3.505 -3.535 3.505 0 3 C0 2.01 0 1.02 0 0 Z " fill="#E9FCFE" transform="translate(159,224)"/>
<path d="M0 0 C5.99932374 1.8331267 11.44920563 4.07321751 17 7 C13.6484259 8.13508688 11.64324324 7.87309359 8.3125 6.75 C7.52488281 6.49734375 6.73726562 6.2446875 5.92578125 5.984375 C4 5 4 5 3 2 C2.01 2 1.02 2 0 2 C0 1.34 0 0.68 0 0 Z " fill="#065A8E" transform="translate(181,262)"/>
<path d="M0 0 C0.33 0 0.66 0 1 0 C1 4.62 1 9.24 1 14 C0.01 13.67 -0.98 13.34 -2 13 C-2.05416188 11.39620659 -2.09286638 9.79188594 -2.125 8.1875 C-2.14820313 7.29417969 -2.17140625 6.40085938 -2.1953125 5.48046875 C-2 3 -2 3 0 0 Z " fill="#C8D2E3" transform="translate(318,228)"/>
<path d="M0 0 C0.6875 1.8125 0.6875 1.8125 1 4 C-0.125 5.8125 -0.125 5.8125 -2 7 C-6.19786372 6.78472494 -7.47077504 5.64691872 -11 3 C-7.7 3 -4.4 3 -1 3 C-0.67 2.01 -0.34 1.02 0 0 Z " fill="#8C99AA" transform="translate(315,219)"/>
<path d="M0 0 C0.99 0.495 0.99 0.495 2 1 C2 1.66 2 2.32 2 3 C3.299375 2.87625 4.59875 2.7525 5.9375 2.625 C6.66839844 2.55539063 7.39929688 2.48578125 8.15234375 2.4140625 C9.06693359 2.20910156 9.06693359 2.20910156 10 2 C10.33 1.34 10.66 0.68 11 0 C11.99 0.33 12.98 0.66 14 1 C13.67 1.99 13.34 2.98 13 4 C9.44646071 5.1845131 6.72986522 5.26641894 3 5 C1.0625 3.625 1.0625 3.625 0 2 C0 1.34 0 0.68 0 0 Z " fill="#9EA7B4" transform="translate(354,239)"/>
<path d="M0 0 C0.99 0 1.98 0 3 0 C2.83628906 0.56203125 2.67257812 1.1240625 2.50390625 1.703125 C1.97135003 4.13059056 1.90101319 6.26889681 1.9375 8.75 C1.94652344 9.54921875 1.95554687 10.3484375 1.96484375 11.171875 C1.97644531 11.77515625 1.98804688 12.3784375 2 13 C1.01 13.495 1.01 13.495 0 14 C-1.17635297 11.64729407 -1.13359359 10.179248 -1.125 7.5625 C-1.12757813 6.78003906 -1.13015625 5.99757812 -1.1328125 5.19140625 C-1 3 -1 3 0 0 Z " fill="#C2CDE1" transform="translate(347,229)"/>
<path d="M0 0 C2.31 0 4.62 0 7 0 C7 0.66 7 1.32 7 2 C5.68 2 4.36 2 3 2 C2.67 4.31 2.34 6.62 2 9 C1.34 9 0.68 9 0 9 C0 6.03 0 3.06 0 0 Z " fill="#DFEAF4" transform="translate(366,215)"/>
<path d="M0 0 C0 0.99 0 1.98 0 3 C3.3 3.33 6.6 3.66 10 4 C10 4.33 10 4.66 10 5 C5.05 5 0.1 5 -5 5 C-4.67 3.68 -4.34 2.36 -4 1 C-2 0 -2 0 0 0 Z " fill="#0769A6" transform="translate(60,268)"/>
<path d="M0 0 C2.64 0 5.28 0 8 0 C8 1.32 8 2.64 8 4 C7 5 7 5 4.4375 5.0625 C3.2309375 5.0315625 3.2309375 5.0315625 2 5 C2 4.01 2 3.02 2 2 C1.34 1.34 0.68 0.68 0 0 Z " fill="#E1E8EC" transform="translate(356,224)"/>
<path d="M0 0 C1.65 0 3.3 0 5 0 C4.67 1.65 4.34 3.3 4 5 C2.35 4.67 0.7 4.34 -1 4 C-0.67 2.68 -0.34 1.36 0 0 Z " fill="#7CD8F3" transform="translate(115,242)"/>
<path d="M0 0 C2.4375 0.8125 2.4375 0.8125 4.4375 2.8125 C4.1875 4.875 4.1875 4.875 3.4375 6.8125 C2.4475 7.3075 2.4475 7.3075 1.4375 7.8125 C1.1075 5.8325 0.7775 3.8525 0.4375 1.8125 C-0.2225 1.8125 -0.8825 1.8125 -1.5625 1.8125 C-1.8925 2.4725 -2.2225 3.1325 -2.5625 3.8125 C-3.5525 3.4825 -4.5425 3.1525 -5.5625 2.8125 C-3.70773038 0.37201366 -3.14722556 -0.2302848 0 0 Z " fill="#969CB0" transform="translate(311.5625,239.1875)"/>
<path d="M0 0 C1.65 0 3.3 0 5 0 C5.33 1.32 5.66 2.64 6 4 C4.35 4.33 2.7 4.66 1 5 C0.67 3.35 0.34 1.7 0 0 Z " fill="#7BD7EF" transform="translate(95,242)"/>
<path d="M0 0 C2 1.125 2 1.125 4 3 C4.25 6.1875 4.25 6.1875 4 9 C3.67 9 3.34 9 3 9 C3 7.35 3 5.7 3 4 C2.34 4 1.68 4 1 4 C1 5.65 1 7.3 1 9 C0.34 8.67 -0.32 8.34 -1 8 C-0.67 6.68 -0.34 5.36 0 4 C-1.65 4 -3.3 4 -5 4 C-4.360625 3.71125 -3.72125 3.4225 -3.0625 3.125 C-0.84793921 2.17176549 -0.84793921 2.17176549 0 0 Z " fill="#CCF4FB" transform="translate(120,238)"/>
<path d="M0 0 C0.33 0 0.66 0 1 0 C1.03738281 0.67546875 1.07476562 1.3509375 1.11328125 2.046875 C1.17902344 2.93890625 1.24476563 3.8309375 1.3125 4.75 C1.37050781 5.63171875 1.42851562 6.5134375 1.48828125 7.421875 C2.06822948 10.34375157 3.18843328 11.68818832 5 14 C5 14.99 5 15.98 5 17 C2 16 2 16 0.8203125 13.80078125 C-0.06563092 10.7759173 -0.2007492 8.33109166 -0.125 5.1875 C-0.10695313 4.21167969 -0.08890625 3.23585937 -0.0703125 2.23046875 C-0.04710937 1.49441406 -0.02390625 0.75835937 0 0 Z " fill="#818EA3" transform="translate(284,227)"/>
<path d="M0 0 C1.23556641 0.01740234 1.23556641 0.01740234 2.49609375 0.03515625 C3.32238281 0.04417969 4.14867187 0.05320313 5 0.0625 C5.63808594 0.07410156 6.27617187 0.08570313 6.93359375 0.09765625 C6.93359375 0.75765625 6.93359375 1.41765625 6.93359375 2.09765625 C4.02759114 3.35430603 2.13754791 4.09765625 -1.06640625 4.09765625 C-1.06640625 3.43765625 -1.06640625 2.77765625 -1.06640625 2.09765625 C-1.72640625 1.76765625 -2.38640625 1.43765625 -3.06640625 1.09765625 C-2.06640625 0.09765625 -2.06640625 0.09765625 0 0 Z " fill="#E1E8EA" transform="translate(327.06640625,223.90234375)"/>
<path d="M0 0 C1.32 0 2.64 0 4 0 C4 1.65 4 3.3 4 5 C2.68 5.33 1.36 5.66 0 6 C-0.38218767 4.34385343 -0.71395102 2.67542976 -1 1 C-0.67 0.67 -0.34 0.34 0 0 Z " fill="#7AD7F3" transform="translate(154,222)"/>
<path d="M0 0 C1.65 0.33 3.3 0.66 5 1 C4.67 2.32 4.34 3.64 4 5 C2.35 4.67 0.7 4.34 -1 4 C-0.67 2.68 -0.34 1.36 0 0 Z " fill="#7CD5F2" transform="translate(154,203)"/>
<path d="M0 0 C2.31 0 4.62 0 7 0 C7 0.99 7 1.98 7 3 C5.02 3.33 3.04 3.66 1 4 C0.67 2.68 0.34 1.36 0 0 Z " fill="#E3E5E7" transform="translate(237,226)"/>
<path d="M0 0 C1.65 0 3.3 0 5 0 C4.67 1.65 4.34 3.3 4 5 C2.68 5 1.36 5 0 5 C0 3.35 0 1.7 0 0 Z " fill="#76D5F0" transform="translate(134,242)"/>
<path d="M0 0 C1.65 0 3.3 0 5 0 C5 1.65 5 3.3 5 5 C3.35 4.67 1.7 4.34 0 4 C0 2.68 0 1.36 0 0 Z " fill="#7BD4F0" transform="translate(153,242)"/>
<path d="M0 0 C1.98 0 3.96 0 6 0 C6.33 1.32 6.66 2.64 7 4 C5.68 4.33 4.36 4.66 3 5 C2.01 3.35 1.02 1.7 0 0 Z " fill="#E2E9EC" transform="translate(389,224)"/>
<path d="M0 0 C1.60332791 -0.08121924 3.20784026 -0.13929134 4.8125 -0.1875 C6.15248047 -0.23970703 6.15248047 -0.23970703 7.51953125 -0.29296875 C10.41647515 0.04918998 11.22555028 0.75393573 13 3 C11.8553125 3.2165625 11.8553125 3.2165625 10.6875 3.4375 C7.91827092 3.9632594 7.91827092 3.9632594 5 5 C5.33 4.01 5.66 3.02 6 2 C3.03 1.505 3.03 1.505 0 1 C0 0.67 0 0.34 0 0 Z " fill="#798092" transform="translate(260,223)"/>
<path d="M0 0 C2.31 0 4.62 0 7 0 C7 0.33 7 0.66 7 1 C5.02 1 3.04 1 1 1 C1 1.66 1 2.32 1 3 C2.32 3.33 3.64 3.66 5 4 C4.01 4.33 3.02 4.66 2 5 C1.01 6.485 1.01 6.485 0 8 C0 6.68 0 5.36 0 4 C-0.66 4 -1.32 4 -2 4 C-1.34 2.68 -0.68 1.36 0 0 Z " fill="#D2F8FD" transform="translate(152,199)"/>
<path d="M0 0 C3.5 0.3125 3.5 0.3125 7 1 C7.33 1.66 7.66 2.32 8 3 C6.68 3 5.36 3 4 3 C4.33 3.66 4.66 4.32 5 5 C3.68 5 2.36 5 1 5 C1 4.01 1 3.02 1 2 C0.34 1.67 -0.32 1.34 -1 1 C-0.67 0.67 -0.34 0.34 0 0 Z " fill="#C5F3FB" transform="translate(153,237)"/>
<path d="M0 0 C0.66 0.33 1.32 0.66 2 1 C-0.46153846 6.66153846 -0.46153846 6.66153846 -3.1875 8.375 C-3.785625 8.58125 -4.38375 8.7875 -5 9 C-3.90931332 5.22454612 -3.0916909 2.52956528 0 0 Z " fill="#9CA5C0" transform="translate(256,225)"/>
<path d="M0 0 C1.9375 0.375 1.9375 0.375 4 1 C4.33 1.66 4.66 2.32 5 3 C3.35 3 1.7 3 0 3 C-0.66 4.32 -1.32 5.64 -2 7 C-2 3 -2 3 0 0 Z " fill="#97A5BD" transform="translate(255,249)"/>
<path d="M0 0 C0.33 0 0.66 0 1 0 C1 1.65 1 3.3 1 5 C-2.63 5 -6.26 5 -10 5 C-10 4.67 -10 4.34 -10 4 C-8.906875 3.855625 -7.81375 3.71125 -6.6875 3.5625 C-3.06877013 3.11711896 -3.06877013 3.11711896 0 2 C0 1.34 0 0.68 0 0 Z " fill="#044586" transform="translate(200,271)"/>
<path d="M0 0 C0.66 0 1.32 0 2 0 C2.66 2.64 3.32 5.28 4 8 C2.68 8 1.36 8 0 8 C0 5.36 0 2.72 0 0 Z " fill="#F1FDFE" transform="translate(112,241)"/>
<path d="M0 0 C0.66 0 1.32 0 2 0 C2 0.66 2 1.32 2 2 C3.32 2.33 4.64 2.66 6 3 C4.68 3.33 3.36 3.66 2 4 C1.67 5.32 1.34 6.64 1 8 C1 6.35 1 4.7 1 3 C0.34 3 -0.32 3 -1 3 C-0.67 2.01 -0.34 1.02 0 0 Z " fill="#C9F4FC" transform="translate(132,238)"/>
<path d="M0 0 C2.97 0 5.94 0 9 0 C9 0.66 9 1.32 9 2 C4.545 2.495 4.545 2.495 0 3 C0 2.01 0 1.02 0 0 Z " fill="#E5E7EC" transform="translate(231,235)"/>
<path d="M0 0 C1.65 0.33 3.3 0.66 5 1 C5 1.99 5 2.98 5 4 C3.02 4 1.04 4 -1 4 C-0.67 2.68 -0.34 1.36 0 0 Z " fill="#E8E5E7" transform="translate(228,225)"/>
<path d="M0 0 C1.32 0.33 2.64 0.66 4 1 C4 2.32 4 3.64 4 5 C4.99 5 5.98 5 7 5 C7.33 5.99 7.66 6.98 8 8 C4.22699642 6.9802693 3.19793856 6.34127338 1.1875 2.875 C0.795625 1.92625 0.40375 0.9775 0 0 Z " fill="#989FB3" transform="translate(316,241)"/>
<path d="M0 0 C0.66 0.33 1.32 0.66 2 1 C2 1.99 2 2.98 2 4 C1.34 4 0.68 4 0 4 C0 5.32 0 6.64 0 8 C-0.66 8 -1.32 8 -2 8 C-2.125 5.125 -2.125 5.125 -2 2 C-1.34 1.34 -0.68 0.68 0 0 Z " fill="#E4E5EA" transform="translate(202,230)"/>
<path d="M0 0 C1.98 0 3.96 0 6 0 C6 1.65 6 3.3 6 5 C5.34 5 4.68 5 4 5 C4 4.34 4 3.68 4 3 C2.68 2.34 1.36 1.68 0 1 C0 0.67 0 0.34 0 0 Z " fill="#E5E8F0" transform="translate(272,224)"/>
<path d="M0 0 C-0.33 0.99 -0.66 1.98 -1 3 C-3.64 3.33 -6.28 3.66 -9 4 C-3.7826087 0 -3.7826087 0 0 0 Z " fill="#08649E" transform="translate(69,264)"/>
<path d="M0 0 C0.99 0.66 1.98 1.32 3 2 C3.1875 5.125 3.1875 5.125 3 8 C2.67 6.68 2.34 5.36 2 4 C1.01 4 0.02 4 -1 4 C-1.33 4.99 -1.66 5.98 -2 7 C-2 5.68 -2 4.36 -2 3 C-1.34 3 -0.68 3 0 3 C0 2.01 0 1.02 0 0 Z " fill="#BFEEFA" transform="translate(160,220)"/>
<path d="M0 0 C2.31 0 4.62 0 7 0 C7 0.66 7 1.32 7 2 C5.35 2.66 3.7 3.32 2 4 C2 3.34 2 2.68 2 2 C1.34 2 0.68 2 0 2 C0 1.34 0 0.68 0 0 Z " fill="#D8E3EB" transform="translate(191,217)"/>
<path d="M0 0 C0.99 0 1.98 0 3 0 C2.67 2.31 2.34 4.62 2 7 C1.34 7 0.68 7 0 7 C0 4.69 0 2.38 0 0 Z " fill="#7AD7FA" transform="translate(128,239)"/>
<path d="M0 0 C3.63 0 7.26 0 11 0 C11 0.33 11 0.66 11 1 C7.26513121 1.5745952 3.78706732 2 0 2 C0 1.34 0 0.68 0 0 Z " fill="#ABB4C8" transform="translate(227,229)"/>
<path d="M0 0 C0.66 0.33 1.32 0.66 2 1 C0.68 3.31 -0.64 5.62 -2 8 C-2.66 8 -3.32 8 -4 8 C-2.25 2.25 -2.25 2.25 0 0 Z " fill="#8C98B4" transform="translate(381,226)"/>
<path d="M0 0 C0.763125 0.0825 1.52625 0.165 2.3125 0.25 C1.3225 0.745 1.3225 0.745 0.3125 1.25 C0.3125 1.91 0.3125 2.57 0.3125 3.25 C-1.6675 3.58 -3.6475 3.91 -5.6875 4.25 C-3.34903846 0.31153846 -3.34903846 0.31153846 0 0 Z " fill="#A3ABBD" transform="translate(294.6875,215.75)"/>
</svg>
